<svg width="20" height="19" viewBox="0 0 20 19" fill="none" xmlns="http://www.w3.org/2000/svg">
<path d="M8.89171 16.9164L8.89099 16.9157C6.30621 14.5366 4.20091 12.5954 2.73592 10.7761C1.27668 8.96397 0.503513 7.33301 0.503513 5.58275C0.503513 2.71783 2.70455 0.503513 5.5 0.503513C7.08497 0.503513 8.61666 1.25509 9.61551 2.4364L10 2.89112L10.3845 2.4364C11.3833 1.25509 12.915 0.503513 14.5 0.503513C17.2954 0.503513 19.4965 2.71783 19.4965 5.58275C19.4965 7.33301 18.7233 8.96397 17.2641 10.7761C15.7991 12.5954 13.6938 14.5366 11.109 16.9157L11.1083 16.9164L10 17.9405L8.89171 16.9164Z" fill="white" stroke="#52575A"/>
</svg>
