<svg width="34" height="24" viewBox="0 0 34 24" fill="none" xmlns="http://www.w3.org/2000/svg">
<path d="M26.9167 16.7867L24.9192 18.6667L19.8333 13.88L14.7475 18.6667L12.75 16.7867L17.8358 12L12.75 7.21333L14.7475 5.33333L19.8333 10.12L24.9192 5.33333L26.9167 7.21333L21.8308 12L26.9167 16.7867ZM31.1667 0C31.9181 0 32.6388 0.280951 33.1701 0.781048C33.7015 1.28115 34 1.95942 34 2.66667V21.3333C34 22.0406 33.7015 22.7189 33.1701 23.219C32.6388 23.719 31.9181 24 31.1667 24H9.91667C8.93917 24 8.17417 23.52 7.66417 22.8133L0 12L7.66417 1.17333C8.17417 0.466667 8.93917 0 9.91667 0H31.1667ZM31.1667 2.66667H9.91667L3.23 12L9.91667 21.3333H31.1667V2.66667Z" fill="#464646"/>
</svg>
