<svg width="23" height="23" viewBox="0 0 23 23" fill="none" xmlns="http://www.w3.org/2000/svg">
<path d="M8.54286 0C10.8086 0 12.9815 0.867772 14.5836 2.41242C16.1857 3.95706 17.0857 6.05205 17.0857 8.2365C17.0857 10.2766 16.3103 12.152 15.0354 13.5966L15.3903 13.9387H16.4286L23 20.2745L21.0286 22.1752L14.4571 15.8394V14.8384L14.1023 14.4962C12.604 15.7254 10.6589 16.473 8.54286 16.473C6.27715 16.473 4.10424 15.6052 2.50214 14.0606C0.900048 12.5159 0 10.421 0 8.2365C0 6.05205 0.900048 3.95706 2.50214 2.41242C4.10424 0.867772 6.27715 0 8.54286 0ZM8.54286 2.53431C5.25714 2.53431 2.62857 5.06862 2.62857 8.2365C2.62857 11.4044 5.25714 13.9387 8.54286 13.9387C11.8286 13.9387 14.4571 11.4044 14.4571 8.2365C14.4571 5.06862 11.8286 2.53431 8.54286 2.53431Z" fill="#B1B1B1"/>
</svg>
